# xmcd
# 
# Track frame offsets:
#	150
#	30154
#	48449
#	62973
#	80116
#	99588
#	110454
#	128489
#	145821
#	158348
#	174030
#	206230
#
# Disc length: 2885 seconds
#
# Revision: 2
# Processed by: cddbd v1.5.1PL0 Copyright (c) Steve Scherf et al.
# Submitted via: Audio-CD-Archiv 3.00.487
#
DISCID=950b430c
DTITLE=Joy Division - Walk Away... In Silence
DYEAR=1900
DGENRE=blues
TTITLE0=I Remember Nothing (Live In London 26.10.79)
TTITLE1=Love Will Tear Us Apart (Live In London 26.10.79)
TTITLE2=Wilderness (Live In London 26.10.79)
TTITLE3=Colony (Live In London 26.10.79)
TTITLE4=Insight (Live In London 26.10.79)
TTITLE5=Day Of The Lords (Live In London 26.10.79)
TTITLE6=Shadowplay (Live In London 26.10.79)
TTITLE7=She's Lost Control (Live In London 26.10.79)
TTITLE8=Transmission (Live In London 26.10.79)
TTITLE9=Disorder (Live In London 26.10.79)
TTITLE10=Atrocity Exhibition (Live In London 26.10.79)
TTITLE11=Interzone (Live In London 26.10.79)
EXTD=
EXTT0=
EXTT1=
EXTT2=
EXTT3=
EXTT4=
EXTT5=
EXTT6=
EXTT7=
EXTT8=
EXTT9=
EXTT10=
EXTT11=
PLAYORDER=
